<svg width="200" height="200" viewBox="0 0 200 200" fill="none" xmlns="http://www.w3.org/2000/svg">
<g clip-path="url(#clip0_462_8565)">
<g opacity="0.25">
<path d="M193.522 87.0001C189.518 83.6721 183.988 81.6141 177.884 81.6141H162.856C156.746 81.6141 151.218 79.5581 147.216 76.2281C143.214 72.9021 140.736 68.3081 140.736 63.2321C140.736 53.0761 150.64 44.8461 162.856 44.8461H177.884C190.098 44.8461 200 36.6161 200 26.4601C200 21.3841 197.524 16.7881 193.522 13.4641C189.518 10.1361 183.988 8.07812 177.884 8.07812H22.116C9.902 8.08212 0 16.3121 0 26.4621C0 31.5381 2.476 36.1361 6.478 39.4621C10.482 42.7881 16.012 44.8481 22.116 44.8481H23.6C29.71 44.8481 35.238 46.9061 39.242 50.2341C43.246 53.5601 45.72 58.1561 45.72 63.2341C45.72 73.3861 35.818 81.6161 23.6 81.6161H22.116C9.902 81.6161 0 89.8481 0 100.002C0 105.078 2.476 109.676 6.478 113.002C10.482 116.33 16.012 118.388 22.116 118.388H33.102L31.902 108.692C31.712 107.138 32.306 105.682 33.356 104.7L61.836 59.6421C62.622 58.3941 63.828 57.4921 65.208 57.0781C65.77 56.9041 66.362 56.8161 66.966 56.8161H75.954V28.8341C75.954 26.2181 78.074 24.0941 80.696 24.0941H113.194C113.724 24.0941 114.244 24.1821 114.736 24.3521C115.62 24.6541 116.408 25.2181 116.986 25.9881L128.94 41.9101C129.26 42.3301 129.5 42.8001 129.662 43.2961C129.814 43.7621 129.89 44.2561 129.89 44.7581V60.6921L165.184 118.542L165.22 118.598L165.368 118.84V118.846C165.436 118.966 165.502 119.09 165.556 119.216C167.636 118.678 169.85 118.388 172.144 118.388H177.88C190.094 118.388 199.996 110.156 199.996 100.002C199.996 94.9261 197.52 90.3281 193.518 87.0021L193.522 87.0001ZM61.038 43.0201L65.116 47.0981C65.52 47.5021 65.52 48.1601 65.116 48.5641L63.634 50.0501C63.226 50.4541 62.568 50.4541 62.162 50.0501L58.084 45.9701C57.68 45.5641 57.022 45.5641 56.618 45.9701L52.54 50.0461C52.136 50.4521 51.478 50.4521 51.074 50.0461L49.59 48.5641C49.186 48.1601 49.186 47.5021 49.59 47.0981L53.668 43.0201C54.072 42.6141 54.072 41.9561 53.668 41.5521L49.586 37.4741C49.182 37.0701 49.182 36.4121 49.586 36.0041L51.074 34.5221C51.478 34.1161 52.136 34.1161 52.54 34.5221L56.618 38.6001C57.026 39.0041 57.68 39.0041 58.088 38.6001L62.166 34.5221C62.57 34.1161 63.228 34.1161 63.634 34.5221L65.116 36.0041C65.52 36.4081 65.52 37.0661 65.116 37.4721L61.038 41.5481C60.634 41.9561 60.634 42.6121 61.038 43.0201ZM138.416 27.7861L136.566 29.6381C136.382 29.8221 136.082 29.8221 135.9 29.6381L135.228 28.9661C135.044 28.7821 135.044 28.4841 135.228 28.3001L137.078 26.4481C137.262 26.2641 137.262 25.9661 137.078 25.7821L135.226 23.9301C135.042 23.7481 135.042 23.4481 135.226 23.2641L135.902 22.5921C136.084 22.4081 136.384 22.4081 136.568 22.5921L138.418 24.4421C138.604 24.6261 138.902 24.6261 139.086 24.4421L140.938 22.5921C141.122 22.4081 141.42 22.4081 141.604 22.5921L142.276 23.2641C142.46 23.4461 142.46 23.7461 142.276 23.9301L140.424 25.7801C140.24 25.9661 140.24 26.2641 140.424 26.4481L142.276 28.3001C142.46 28.4841 142.46 28.7821 142.276 28.9661L141.604 29.6421C141.418 29.8241 141.12 29.8241 140.936 29.6421L139.084 27.7881C138.902 27.6041 138.602 27.6041 138.418 27.7881L138.416 27.7861ZM193.524 160.538C189.52 157.212 183.99 155.152 177.886 155.152H172.15C167.998 155.152 164.108 154.2 160.788 152.542L157.486 172.3L156.522 178.07C156.144 180.322 154.194 181.972 151.914 181.972H45.102C42.74 181.972 40.752 180.216 40.466 177.872L39.776 172.3L37.656 155.152H22.12C9.906 155.152 0.004 163.382 0.004 173.538C0.004 178.614 2.48 183.21 6.482 186.534C10.486 189.862 16.016 191.92 22.12 191.92H177.888C190.102 191.92 200.004 183.69 200.004 173.538C200.004 168.462 197.528 163.864 193.526 160.538H193.524ZM170.524 163.468L172.376 165.32C172.56 165.504 172.56 165.802 172.376 165.986L171.704 166.662C171.518 166.846 171.22 166.846 171.036 166.662L169.186 164.808C169.002 164.624 168.702 164.624 168.52 164.808L166.668 166.66C166.484 166.844 166.186 166.844 166.002 166.66L165.33 165.988C165.146 165.804 165.146 165.506 165.33 165.322L167.182 163.47C167.364 163.286 167.364 162.988 167.182 162.804L165.328 160.954C165.144 160.77 165.144 160.47 165.328 160.286L166.004 159.614C166.188 159.43 166.486 159.43 166.67 159.614L168.522 161.464C168.706 161.648 169.004 161.648 169.188 161.464L171.04 159.614C171.224 159.43 171.522 159.43 171.706 159.614L172.378 160.286C172.562 160.47 172.562 160.768 172.378 160.952L170.526 162.802C170.344 162.988 170.344 163.286 170.526 163.47L170.524 163.468Z" fill="#CCD2D6"/>
<path d="M181.93 137.663C181.93 144.301 176.55 149.679 169.914 149.679C166.784 149.679 163.934 148.485 161.794 146.519L165.116 126.643C166.586 126.001 168.208 125.645 169.912 125.645C176.548 125.645 181.928 131.025 181.928 137.661L181.93 137.663Z" fill="#CCD2D6"/>
<path d="M27.39 75.7976C34.0263 75.7976 39.406 70.4179 39.406 63.7816C39.406 57.1454 34.0263 51.7656 27.39 51.7656C20.7538 51.7656 15.374 57.1454 15.374 63.7816C15.374 70.4179 20.7538 75.7976 27.39 75.7976Z" fill="#CCD2D6"/>
</g>
<g opacity="0.5">
<path d="M165.372 118.843V118.835L165.22 118.593L165.184 118.541C164.354 117.297 162.938 116.463 161.3 116.463H71.7859C69.8939 116.463 68.1899 115.321 67.4679 113.573L64.4799 106.335C63.7579 104.587 62.0539 103.445 60.1599 103.445H36.5439C35.3039 103.445 34.1879 103.923 33.3599 104.697C32.3079 105.677 31.7119 107.133 31.9039 108.689L39.7719 172.299H157.482L165.908 121.907C166.096 120.801 165.874 119.735 165.37 118.843H165.372ZM116.38 136.261C115.424 137.223 114.096 137.817 112.63 137.817H85.2139C82.2859 137.817 79.9099 135.441 79.9099 132.511C79.9099 131.047 80.5039 129.721 81.4639 128.761C82.4259 127.801 83.7479 127.207 85.2139 127.207H112.63C115.56 127.207 117.936 129.581 117.936 132.511C117.936 133.975 117.342 135.305 116.38 136.261Z" fill="#CCD2D6"/>
</g>
<g opacity="0.75">
<path d="M117.934 132.511C117.934 133.975 117.34 135.305 116.378 136.261C115.422 137.223 114.094 137.817 112.628 137.817H85.212C82.284 137.817 79.908 135.441 79.908 132.511C79.908 131.047 80.502 129.721 81.462 128.761C82.424 127.801 83.746 127.207 85.212 127.207H112.628C115.558 127.207 117.934 129.581 117.934 132.511Z" fill="#CCD2D6"/>
</g>
<path d="M112.628 138.419H85.2119C81.9559 138.419 79.3079 135.769 79.3079 132.513C79.3079 130.937 79.9219 129.455 81.0379 128.339C82.1559 127.223 83.6379 126.609 85.2119 126.609H112.628C115.884 126.609 118.534 129.257 118.534 132.513C118.534 134.093 117.918 135.577 116.802 136.689C115.692 137.805 114.21 138.419 112.628 138.419ZM85.2119 127.809C83.9579 127.809 82.7779 128.299 81.8859 129.187C80.9979 130.075 80.5079 131.255 80.5079 132.511C80.5079 135.105 82.6179 137.217 85.2119 137.217H112.628C113.886 137.217 115.068 136.727 115.952 135.837C116.844 134.949 117.334 133.769 117.334 132.511C117.334 129.917 115.222 127.807 112.628 127.807H85.2119V127.809Z" fill="#CCD2D6"/>
<g opacity="0.75">
<path d="M157.484 172.301L156.52 178.073C156.144 180.325 154.194 181.973 151.912 181.973H45.0999C42.7379 181.973 40.7499 180.215 40.4639 177.873L39.7739 172.301H157.484Z" fill="#CCD2D6"/>
</g>
<path d="M151.912 182.571H45.1C42.44 182.571 40.192 180.581 39.868 177.945L39.094 171.699H158.192L157.112 178.169C156.686 180.719 154.498 182.571 151.912 182.571ZM40.452 172.899L41.06 177.797C41.31 179.835 43.048 181.371 45.102 181.371H151.914C153.912 181.371 155.602 179.941 155.93 177.971L156.778 172.899H40.452Z" fill="#CCD2D6"/>
<path d="M95.0479 166.473H48.2179C47.8859 166.473 47.6179 166.205 47.6179 165.873C47.6179 165.541 47.8859 165.273 48.2179 165.273H95.0479C95.3799 165.273 95.6479 165.541 95.6479 165.873C95.6479 166.205 95.3799 166.473 95.0479 166.473Z" fill="#CCD2D6"/>
<path d="M129.89 166.473H102.922C102.59 166.473 102.322 166.205 102.322 165.873C102.322 165.541 102.59 165.273 102.922 165.273H129.89C130.222 165.273 130.49 165.541 130.49 165.873C130.49 166.205 130.222 166.473 129.89 166.473Z" fill="#CCD2D6"/>
<path d="M58.6859 117.063H42.1579C41.8259 117.063 41.5579 116.795 41.5579 116.463C41.5579 116.131 41.8259 115.863 42.1579 115.863H58.6859C59.0179 115.863 59.2859 116.131 59.2859 116.463C59.2859 116.795 59.0179 117.063 58.6859 117.063Z" fill="#CCD2D6"/>
<path d="M151.796 160.044H123.148C122.816 160.044 122.548 159.776 122.548 159.444C122.548 159.112 122.816 158.844 123.148 158.844H151.796C152.128 158.844 152.396 159.112 152.396 159.444C152.396 159.776 152.128 160.044 151.796 160.044Z" fill="#CCD2D6"/>
<g opacity="0.75">
<path d="M129.662 89.4146V116.461H71.7859C69.8939 116.461 68.1899 115.319 67.4699 113.571L65.2119 108.103V57.0706C65.7739 56.8986 66.3659 56.8086 66.9719 56.8086H75.9579V87.9566C75.9579 90.5746 78.0779 92.6966 80.6979 92.6966H125.152C127.26 92.6966 129.048 91.3186 129.662 89.4126V89.4146Z" fill="#CCD2D6"/>
</g>
<path d="M130.262 117.061H71.7861C69.6441 117.061 67.7301 115.781 66.9141 113.801L64.6101 108.223V56.6289L65.0341 56.4989C65.6561 56.3069 66.3061 56.2109 66.9701 56.2109H76.5561V87.9589C76.5561 90.2409 78.4141 92.0989 80.6961 92.0989H125.15C126.952 92.0989 128.536 90.9469 129.09 89.2309L130.26 85.6049V117.063L130.262 117.061ZM65.8101 107.983L68.0221 113.341C68.6521 114.871 70.1301 115.859 71.7841 115.859H129.06V91.5969C128.074 92.6589 126.672 93.2969 125.15 93.2969H80.6961C77.7521 93.2969 75.3561 90.9009 75.3561 87.9569V57.4089H66.9701C66.5761 57.4089 66.1881 57.4509 65.8121 57.5329V107.983H65.8101Z" fill="#CCD2D6"/>
<g opacity="0.75">
<path d="M65.21 57.0703V108.102L64.478 106.332C63.758 104.584 62.052 103.442 60.158 103.442H36.54C35.302 103.442 34.184 103.92 33.356 104.694L61.836 59.6363C62.624 58.3863 63.83 57.4863 65.208 57.0703H65.21Z" fill="#CCD2D6"/>
</g>
<g opacity="0.75">
<path d="M165.186 118.538C164.356 117.294 162.938 116.46 161.3 116.46H129.662V89.4135C129.81 88.9555 129.892 88.4675 129.892 87.9575V60.6875L165.186 118.54V118.538Z" fill="#CCD2D6"/>
</g>
<path d="M65.81 111.128L63.924 106.564C63.294 105.034 61.816 104.046 60.16 104.046H36.542C35.506 104.046 34.52 104.434 33.768 105.136L30.354 108.328L61.33 59.3176C62.184 57.9616 63.502 56.9616 65.036 56.4976L65.81 56.2656V111.128ZM36.542 102.844H60.16C61.992 102.844 63.656 103.778 64.61 105.286V57.9436C63.684 58.3836 62.898 59.0796 62.346 59.9556L35.116 103.036C35.576 102.908 36.054 102.842 36.542 102.842V102.844Z" fill="#CCD2D6"/>
<path d="M164.686 118.875C163.928 117.741 162.662 117.065 161.3 117.065H129.062V89.3227L129.092 89.2327C129.224 88.8227 129.292 88.3947 129.292 87.9607V58.5547L165.698 118.231L164.686 118.877V118.875ZM130.262 115.865H161.3C161.896 115.865 162.478 115.965 163.024 116.155L130.49 62.8267V87.9627C130.49 88.4887 130.412 89.0107 130.26 89.5107V115.865H130.262Z" fill="#CCD2D6"/>
<g opacity="0.25">
<path d="M129.89 44.7538V87.9579C129.89 90.5759 127.766 92.6978 125.15 92.6978H80.6961C78.0761 92.6978 75.9561 90.5739 75.9561 87.9579V28.8298C75.9561 26.2138 78.0761 24.0898 80.6961 24.0898H113.196C113.728 24.0898 114.246 24.1798 114.736 24.3478V41.1698C114.736 42.3438 115.686 43.2938 116.86 43.2938H129.662C129.814 43.7598 129.892 44.2518 129.892 44.7538H129.89Z" fill="#CCD2D6"/>
</g>
<path d="M125.15 93.3002H80.696C77.752 93.3002 75.356 90.9042 75.356 87.9602V28.8322C75.356 25.8882 77.752 23.4922 80.696 23.4922H113.196C113.788 23.4922 114.372 23.5902 114.932 23.7842L115.336 23.9242V41.1742C115.336 42.0142 116.02 42.6982 116.86 42.6982H130.098L130.232 43.1142C130.404 43.6442 130.49 44.1982 130.49 44.7582V87.9622C130.49 90.9062 128.094 93.3022 125.15 93.3022V93.3002ZM80.696 24.6922C78.414 24.6922 76.556 26.5502 76.556 28.8322V87.9602C76.556 90.2422 78.414 92.1002 80.696 92.1002H125.15C127.434 92.1002 129.29 90.2422 129.29 87.9602V44.7562C129.29 44.4662 129.26 44.1782 129.2 43.8962H116.858C115.356 43.8962 114.134 42.6742 114.134 41.1722V24.8002C113.826 24.7282 113.512 24.6922 113.194 24.6922H80.694H80.696Z" fill="#CCD2D6"/>
<g opacity="0.5">
<path d="M129.662 43.2937H116.86C115.686 43.2937 114.736 42.3437 114.736 41.1697V24.3477C115.62 24.6497 116.408 25.2137 116.986 25.9817L128.94 41.9057C129.258 42.3257 129.498 42.7957 129.66 43.2917L129.662 43.2937Z" fill="#CCD2D6"/>
</g>
<path d="M130.488 43.8957H116.86C115.358 43.8957 114.136 42.6737 114.136 41.1717V23.5117L114.93 23.7837C115.944 24.1297 116.82 24.7677 117.466 25.6257L129.42 41.5497C129.772 42.0157 130.046 42.5417 130.232 43.1117L130.488 43.8977V43.8957ZM115.336 25.2877V41.1717C115.336 42.0117 116.02 42.6957 116.86 42.6957H128.744C128.66 42.5477 128.566 42.4057 128.464 42.2717L116.508 26.3477C116.186 25.9177 115.79 25.5617 115.338 25.2897L115.336 25.2877Z" fill="#CCD2D6"/>
<path d="M129.432 99.9048H127.44C127.108 99.9048 126.84 99.6368 126.84 99.3048C126.84 98.9728 127.108 98.7048 127.44 98.7048H129.432C130.272 98.7048 131.104 98.4948 131.838 98.0968C132.13 97.9388 132.494 98.0468 132.652 98.3388C132.81 98.6308 132.702 98.9948 132.41 99.1528C131.502 99.6468 130.47 99.9068 129.432 99.9068V99.9048ZM122.64 99.9048H117.84C117.508 99.9048 117.24 99.6368 117.24 99.3048C117.24 98.9728 117.508 98.7048 117.84 98.7048H122.64C122.972 98.7048 123.24 98.9728 123.24 99.3048C123.24 99.6368 122.972 99.9048 122.64 99.9048ZM113.04 99.9048H108.24C107.908 99.9048 107.64 99.6368 107.64 99.3048C107.64 98.9728 107.908 98.7048 108.24 98.7048H113.04C113.372 98.7048 113.64 98.9728 113.64 99.3048C113.64 99.6368 113.372 99.9048 113.04 99.9048ZM103.44 99.9048H98.64C98.308 99.9048 98.04 99.6368 98.04 99.3048C98.04 98.9728 98.308 98.7048 98.64 98.7048H103.44C103.772 98.7048 104.04 98.9728 104.04 99.3048C104.04 99.6368 103.772 99.9048 103.44 99.9048ZM93.84 99.9048H89.04C88.708 99.9048 88.44 99.6368 88.44 99.3048C88.44 98.9728 88.708 98.7048 89.04 98.7048H93.84C94.172 98.7048 94.44 98.9728 94.44 99.3048C94.44 99.6368 94.172 99.9048 93.84 99.9048ZM84.24 99.9048H79.44C79.108 99.9048 78.84 99.6368 78.84 99.3048C78.84 98.9728 79.108 98.7048 79.44 98.7048H84.24C84.572 98.7048 84.84 98.9728 84.84 99.3048C84.84 99.6368 84.572 99.9048 84.24 99.9048ZM74.67 99.6288C74.608 99.6288 74.546 99.6188 74.484 99.5988C72.776 99.0448 71.388 97.7808 70.676 96.1308C70.544 95.8268 70.684 95.4728 70.988 95.3428C71.292 95.2108 71.646 95.3508 71.776 95.6548C72.352 96.9888 73.474 98.0108 74.852 98.4568C75.168 98.5588 75.34 98.8968 75.238 99.2128C75.156 99.4668 74.92 99.6268 74.668 99.6268L74.67 99.6288ZM134.946 95.5168C134.902 95.5168 134.856 95.5128 134.812 95.5008C134.488 95.4268 134.286 95.1048 134.36 94.7828C134.444 94.4148 134.486 94.0348 134.486 93.6528V90.1288C134.486 89.7968 134.754 89.5288 135.086 89.5288C135.418 89.5288 135.686 89.7968 135.686 90.1288V93.6528C135.686 94.1248 135.634 94.5948 135.528 95.0508C135.464 95.3288 135.218 95.5168 134.944 95.5168H134.946ZM70.766 91.7568C70.434 91.7568 70.166 91.4888 70.166 91.1568V86.3568C70.166 86.0248 70.434 85.7568 70.766 85.7568C71.098 85.7568 71.366 86.0248 71.366 86.3568V91.1568C71.366 91.4888 71.098 91.7568 70.766 91.7568ZM135.086 85.9268C134.754 85.9268 134.486 85.6588 134.486 85.3268V80.5268C134.486 80.1948 134.754 79.9268 135.086 79.9268C135.418 79.9268 135.686 80.1948 135.686 80.5268V85.3268C135.686 85.6588 135.418 85.9268 135.086 85.9268ZM70.766 82.1568C70.434 82.1568 70.166 81.8888 70.166 81.5568V76.7568C70.166 76.4248 70.434 76.1568 70.766 76.1568C71.098 76.1568 71.366 76.4248 71.366 76.7568V81.5568C71.366 81.8888 71.098 82.1568 70.766 82.1568ZM135.086 76.3268C134.754 76.3268 134.486 76.0588 134.486 75.7268V70.9268C134.486 70.5948 134.754 70.3268 135.086 70.3268C135.418 70.3268 135.686 70.5948 135.686 70.9268V75.7268C135.686 76.0588 135.418 76.3268 135.086 76.3268ZM70.766 72.5568C70.434 72.5568 70.166 72.2888 70.166 71.9568V67.1568C70.166 66.8248 70.434 66.5568 70.766 66.5568C71.098 66.5568 71.366 66.8248 71.366 67.1568V71.9568C71.366 72.2888 71.098 72.5568 70.766 72.5568ZM135.086 66.7268C134.754 66.7268 134.486 66.4588 134.486 66.1268V61.3268C134.486 60.9948 134.754 60.7268 135.086 60.7268C135.418 60.7268 135.686 60.9948 135.686 61.3268V66.1268C135.686 66.4588 135.418 66.7268 135.086 66.7268ZM70.766 62.9568C70.434 62.9568 70.166 62.6888 70.166 62.3568V57.5568C70.166 57.2248 70.434 56.9568 70.766 56.9568C71.098 56.9568 71.366 57.2248 71.366 57.5568V62.3568C71.366 62.6888 71.098 62.9568 70.766 62.9568ZM135.086 57.1268C134.754 57.1268 134.486 56.8588 134.486 56.5268V51.7268C134.486 51.3948 134.754 51.1268 135.086 51.1268C135.418 51.1268 135.686 51.3948 135.686 51.7268V56.5268C135.686 56.8588 135.418 57.1268 135.086 57.1268ZM70.766 53.3568C70.434 53.3568 70.166 53.0888 70.166 52.7568V47.9568C70.166 47.6248 70.434 47.3568 70.766 47.3568C71.098 47.3568 71.366 47.6248 71.366 47.9568V52.7568C71.366 53.0888 71.098 53.3568 70.766 53.3568ZM135.086 47.5268C134.754 47.5268 134.486 47.2588 134.486 46.9268V42.1268C134.486 41.5988 134.404 41.0748 134.24 40.5688C134.06 40.0248 133.802 39.5288 133.474 39.0948L133.084 38.5768C132.886 38.3108 132.938 37.9348 133.204 37.7368C133.47 37.5388 133.846 37.5908 134.044 37.8568L134.43 38.3708C134.838 38.9068 135.158 39.5208 135.38 40.1968C135.582 40.8268 135.684 41.4748 135.684 42.1268V46.9268C135.684 47.2588 135.416 47.5268 135.084 47.5268H135.086ZM70.766 43.7568C70.434 43.7568 70.166 43.4888 70.166 43.1568V38.3568C70.166 38.0248 70.434 37.7568 70.766 37.7568C71.098 37.7568 71.366 38.0248 71.366 38.3568V43.1568C71.366 43.4888 71.098 43.7568 70.766 43.7568ZM130.684 34.9788C130.502 34.9788 130.322 34.8968 130.204 34.7388L127.322 30.9008C127.124 30.6368 127.176 30.2588 127.442 30.0608C127.708 29.8628 128.084 29.9148 128.282 30.1808L131.164 34.0188C131.362 34.2828 131.31 34.6608 131.044 34.8588C130.936 34.9408 130.81 34.9788 130.684 34.9788ZM70.766 34.1568C70.434 34.1568 70.166 33.8888 70.166 33.5568V28.7568C70.166 28.4248 70.434 28.1568 70.766 28.1568C71.098 28.1568 71.366 28.4248 71.366 28.7568V33.5568C71.366 33.8888 71.098 34.1568 70.766 34.1568ZM124.922 27.3008C124.74 27.3008 124.56 27.2188 124.442 27.0608L121.56 23.2228C121.362 22.9568 121.414 22.5808 121.68 22.3828C121.946 22.1848 122.322 22.2368 122.52 22.5028L125.402 26.3408C125.6 26.6068 125.548 26.9828 125.282 27.1808C125.174 27.2628 125.048 27.3008 124.922 27.3008ZM70.766 24.5568C70.434 24.5568 70.166 24.2888 70.166 23.9568V23.1368C70.166 21.6548 70.694 20.2188 71.652 19.0908C71.866 18.8388 72.246 18.8068 72.498 19.0228C72.75 19.2368 72.782 19.6168 72.566 19.8688C71.792 20.7788 71.366 21.9408 71.366 23.1368V23.9568C71.366 24.2888 71.098 24.5568 70.766 24.5568ZM119.102 19.6688C118.952 19.6688 118.802 19.6128 118.686 19.5008C118.156 18.9908 117.512 18.5968 116.82 18.3608C116.292 18.1768 115.74 18.0828 115.176 18.0828H114.716C114.384 18.0828 114.116 17.8148 114.116 17.4828C114.116 17.1508 114.384 16.8828 114.716 16.8828H115.176C115.874 16.8828 116.56 16.9988 117.212 17.2248C118.066 17.5148 118.864 18.0028 119.52 18.6348C119.758 18.8648 119.766 19.2448 119.536 19.4828C119.418 19.6048 119.262 19.6668 119.104 19.6668L119.102 19.6688ZM76.316 18.0848C75.99 18.0848 75.722 17.8228 75.716 17.4948C75.71 17.1628 75.974 16.8908 76.306 16.8848H76.418H81.116C81.448 16.8848 81.716 17.1528 81.716 17.4848C81.716 17.8168 81.448 18.0848 81.116 18.0848H76.326C76.326 18.0848 76.318 18.0848 76.316 18.0848ZM109.916 18.0848H105.116C104.784 18.0848 104.516 17.8168 104.516 17.4848C104.516 17.1528 104.784 16.8848 105.116 16.8848H109.916C110.248 16.8848 110.516 17.1528 110.516 17.4848C110.516 17.8168 110.248 18.0848 109.916 18.0848ZM100.316 18.0848H95.516C95.184 18.0848 94.916 17.8168 94.916 17.4848C94.916 17.1528 95.184 16.8848 95.516 16.8848H100.316C100.648 16.8848 100.916 17.1528 100.916 17.4848C100.916 17.8168 100.648 18.0848 100.316 18.0848ZM90.716 18.0848H85.916C85.584 18.0848 85.316 17.8168 85.316 17.4848C85.316 17.1528 85.584 16.8848 85.916 16.8848H90.716C91.048 16.8848 91.316 17.1528 91.316 17.4848C91.316 17.8168 91.048 18.0848 90.716 18.0848Z" fill="#CCD2D6"/>
<g opacity="0.5">
<path d="M100.748 66.2367C98.6801 66.2367 97.1101 64.3228 97.5741 62.3088C97.6741 61.8768 97.7941 61.4807 97.9341 61.1227C98.4221 59.8727 99.2121 58.7907 100.308 57.8727C101.402 56.9567 102.234 56.1167 102.804 55.3547C103.374 54.5927 103.658 53.7547 103.658 52.8367C103.658 50.6047 102.696 49.4867 100.774 49.4867C99.8861 49.4867 99.1701 49.8127 98.6221 50.4627C98.4401 50.6788 98.2861 50.9227 98.1621 51.1907C97.6281 52.3347 96.5221 53.1028 95.2601 53.1028H94.2361C91.7781 53.1028 90.2061 50.4728 91.3801 48.3108C91.8141 47.5128 92.3721 46.8068 93.0561 46.1928C94.8901 44.5448 97.4621 43.7188 100.776 43.7188C104.09 43.7188 106.628 44.4807 108.44 46.0027C110.252 47.5267 111.158 49.6928 111.158 52.5028C111.158 53.7308 110.914 54.8468 110.426 55.8528C109.938 56.8588 109.154 57.8867 108.074 58.9367L105.522 61.3107C104.798 62.0067 104.294 62.7188 104.014 63.4508C103.958 63.5987 103.906 63.7548 103.858 63.9208C103.468 65.3008 102.184 66.2348 100.75 66.2348L100.748 66.2367ZM96.2921 72.9807C96.2921 71.8867 96.6881 70.9888 97.4781 70.2848C98.2681 69.5828 99.2561 69.2307 100.44 69.2307C101.624 69.2307 102.61 69.5828 103.402 70.2848C104.192 70.9868 104.588 71.8867 104.588 72.9807C104.588 74.0747 104.192 74.9748 103.402 75.6768C102.61 76.3787 101.624 76.7307 100.44 76.7307C99.2561 76.7307 98.2701 76.3787 97.4781 75.6768C96.6861 74.9748 96.2921 74.0767 96.2921 72.9807Z" fill="#CCD2D6"/>
</g>
<path d="M157.992 172.902H39.2418L31.3078 108.764C31.1018 107.094 31.7158 105.41 32.9498 104.26C33.9218 103.35 35.1978 102.848 36.5418 102.848H60.1578C62.3018 102.848 64.2158 104.128 65.0338 106.108L68.0218 113.346C68.6538 114.876 70.1298 115.864 71.7858 115.864H161.3C163.066 115.864 164.704 116.74 165.684 118.21L165.732 118.282L165.924 118.604C166.5 119.652 166.7 120.828 166.5 122.01L157.992 172.902ZM40.3038 171.702H156.976L165.318 121.81C165.474 120.884 165.312 119.96 164.85 119.14L164.69 118.882C163.93 117.742 162.664 117.064 161.302 117.064H71.7878C69.6458 117.064 67.7338 115.784 66.9158 113.804L63.9278 106.566C63.2958 105.036 61.8178 104.048 60.1618 104.048H36.5458C35.5078 104.048 34.5218 104.434 33.7718 105.138C32.8038 106.04 32.3398 107.308 32.5018 108.618L40.3058 171.702H40.3038Z" fill="#CCD2D6"/>
<g opacity="0.5">
<path d="M65.1139 47.0938C65.5179 47.4978 65.5179 48.1558 65.1139 48.5598L63.6319 50.0458C63.2239 50.4498 62.5659 50.4498 62.1619 50.0458L58.0839 45.9658C57.6799 45.5618 57.0219 45.5618 56.6179 45.9658L52.5399 50.0438C52.1359 50.4478 51.4779 50.4478 51.0739 50.0438L49.5919 48.5618C49.1879 48.1578 49.1879 47.4998 49.5919 47.0958L53.6699 43.0178C54.0739 42.6138 54.0739 41.9558 53.6699 41.5518L49.5899 37.4738C49.1859 37.0698 49.1859 36.4118 49.5899 36.0038L51.0759 34.5218C51.4799 34.1177 52.1379 34.1177 52.5419 34.5218L56.6199 38.5998C57.0279 39.0038 57.6819 39.0038 58.0899 38.5998L62.1679 34.5218C62.5719 34.1177 63.2299 34.1177 63.6339 34.5218L65.1159 36.0038C65.5199 36.4078 65.5199 37.0658 65.1159 37.4698L61.0379 41.5478C60.6339 41.9558 60.6339 42.6098 61.0379 43.0178L65.1159 47.0958L65.1139 47.0938Z" fill="#CCD2D6"/>
</g>
<g opacity="0.5">
<path d="M155.434 68.9199C155.706 69.1919 155.706 69.6339 155.434 69.9059L154.436 70.9059C154.162 71.1779 153.718 71.1779 153.446 70.9059L150.702 68.1599C150.43 67.8879 149.988 67.8879 149.716 68.1599L146.972 70.9039C146.7 71.1759 146.258 71.1759 145.986 70.9039L144.988 69.9059C144.716 69.6339 144.716 69.1919 144.988 68.9199L147.732 66.1759C148.004 65.9039 148.004 65.4619 147.732 65.1899L144.986 62.4459C144.714 62.1739 144.714 61.7319 144.986 61.4559L145.986 60.4579C146.258 60.1859 146.7 60.1859 146.972 60.4579L149.716 63.2019C149.99 63.4739 150.43 63.4739 150.706 63.2019L153.45 60.4579C153.722 60.1859 154.164 60.1859 154.436 60.4579L155.434 61.4559C155.706 61.7279 155.706 62.1699 155.434 62.4419L152.69 65.1859C152.418 65.4599 152.418 65.8999 152.69 66.1759L155.434 68.9199Z" fill="#CCD2D6"/>
</g>
<g opacity="0.5">
<path d="M142.274 28.2973C142.458 28.4813 142.458 28.7793 142.274 28.9633L141.6 29.6373C141.414 29.8213 141.116 29.8213 140.932 29.6373L139.08 27.7833C138.896 27.5993 138.598 27.5993 138.414 27.7833L136.562 29.6353C136.378 29.8193 136.08 29.8193 135.896 29.6353L135.222 28.9613C135.038 28.7773 135.038 28.4793 135.222 28.2953L137.074 26.4433C137.258 26.2593 137.258 25.9613 137.074 25.7773L135.22 23.9253C135.036 23.7413 135.036 23.4433 135.22 23.2573L135.894 22.5833C136.078 22.3993 136.376 22.3993 136.56 22.5833L138.412 24.4353C138.598 24.6193 138.894 24.6193 139.08 24.4353L140.932 22.5833C141.116 22.3993 141.414 22.3993 141.598 22.5833L142.272 23.2573C142.456 23.4413 142.456 23.7393 142.272 23.9233L140.42 25.7753C140.236 25.9613 140.236 26.2573 140.42 26.4433L142.272 28.2953L142.274 28.2973Z" fill="#CCD2D6"/>
</g>
<g opacity="0.5">
<path d="M172.374 165.317C172.558 165.501 172.558 165.799 172.374 165.983L171.7 166.657C171.514 166.841 171.216 166.841 171.032 166.657L169.18 164.803C168.996 164.619 168.698 164.619 168.514 164.803L166.662 166.655C166.478 166.839 166.18 166.839 165.996 166.655L165.322 165.981C165.138 165.797 165.138 165.499 165.322 165.315L167.174 163.463C167.358 163.279 167.358 162.981 167.174 162.797L165.32 160.945C165.136 160.761 165.136 160.463 165.32 160.277L165.994 159.603C166.178 159.419 166.476 159.419 166.66 159.603L168.512 161.455C168.698 161.639 168.994 161.639 169.18 161.455L171.032 159.603C171.216 159.419 171.514 159.419 171.698 159.603L172.372 160.277C172.556 160.461 172.556 160.759 172.372 160.943L170.52 162.795C170.336 162.981 170.336 163.277 170.52 163.463L172.372 165.315L172.374 165.317Z" fill="#CCD2D6"/>
</g>
<g opacity="0.5">
<path d="M25.0819 141.957C25.2659 142.141 25.2659 142.439 25.0819 142.623L24.4079 143.297C24.2219 143.481 23.9239 143.481 23.7399 143.297L21.8879 141.443C21.7039 141.259 21.4059 141.259 21.2219 141.443L19.3699 143.295C19.1859 143.479 18.8879 143.479 18.7039 143.295L18.0299 142.621C17.8459 142.437 17.8459 142.139 18.0299 141.955L19.8819 140.103C20.0659 139.919 20.0659 139.621 19.8819 139.437L18.0279 137.585C17.8439 137.401 17.8439 137.103 18.0279 136.917L18.7019 136.243C18.8859 136.059 19.1839 136.059 19.3679 136.243L21.2199 138.095C21.4059 138.279 21.7019 138.279 21.8879 138.095L23.7399 136.243C23.9239 136.059 24.2219 136.059 24.4059 136.243L25.0799 136.917C25.2639 137.101 25.2639 137.399 25.0799 137.583L23.2279 139.435C23.0439 139.621 23.0439 139.917 23.2279 140.103L25.0799 141.955L25.0819 141.957Z" fill="#CCD2D6"/>
</g>
</g>
<defs>
<clipPath id="clip0_462_8565">
<rect width="200" height="200" fill="white"/>
</clipPath>
</defs>
</svg>
