<svg width="36" height="36" viewBox="0 0 36 36" fill="none" xmlns="http://www.w3.org/2000/svg">
<path fill-rule="evenodd" clip-rule="evenodd" d="M17.9403 0C27.8485 0 35.8805 8.05872 35.8805 17.9999C35.8805 27.9411 27.8485 35.9998 17.9403 35.9998C8.03201 35.9998 0 27.9411 0 17.9999C0 8.05872 8.03201 0 17.9403 0Z" fill="url(#paint0_linear_9_287)"/>
<path fill-rule="evenodd" clip-rule="evenodd" d="M25.9406 9.66749L17.7482 17.8872L12.8323 12.9551C11.3279 11.4458 8.88879 11.4458 7.38454 12.9551C5.88028 14.4643 5.88028 16.9116 7.38454 18.4209L15.0242 26.0858C16.5285 27.5951 18.9677 27.5951 20.472 26.0858L29.8206 16.7061C30.4691 16.1232 31.326 15.7688 32.2652 15.7688C34.5441 15.7688 35.6847 17.2553 35.8255 19.4225C35.8621 18.9533 35.8808 18.4789 35.8808 18.0001C35.8808 10.3986 31.1846 3.89772 24.5442 1.25879C26.18 2.13194 27.3317 3.5728 27.3317 5.9096C27.3317 7.34578 26.8075 8.65921 25.9406 9.66764V9.66749Z" fill="url(#paint1_linear_9_287)"/>
<defs>
<linearGradient id="paint0_linear_9_287" x1="30.2497" y1="4.92501" x2="4.43555" y2="30.6749" gradientUnits="userSpaceOnUse">
<stop stop-color="#F1791D"/>
<stop offset="1" stop-color="#4196F4"/>
</linearGradient>
<linearGradient id="paint1_linear_9_287" x1="10.4469" y1="21.4935" x2="33.5669" y2="6.99357" gradientUnits="userSpaceOnUse">
<stop stop-color="#FAFDF9"/>
<stop offset="1" stop-color="#C5E6ED"/>
</linearGradient>
</defs>
</svg>
